<svg xmlns="http://www.w3.org/2000/svg"  viewBox="0 0 48 48" width="48px" height="48px"><circle cx="8" cy="25" r="4" fill="#ddbaff"/><path fill="#ddbaff" d="M24,42L24,42c-8.216,0-15.137-6.14-16.116-14.297L8,23C6.784,12.86,13.788,4,24,4l0,0 c10.212,0,17.217,8.861,16,19l0.115,4.702C39.137,35.86,32.216,42,24,42z"/><circle cx="17.5" cy="23.5" r="2.5" fill="#2100c4"/><circle cx="30.5" cy="23.5" r="2.5" fill="#2100c4"/><path fill="#3dd9eb" d="M37.701,8.916c-0.825-1.117-1.787-2.133-2.858-3.017C31.912,3.474,28.145,2.003,24,2.003 s-7.912,1.471-10.844,3.895c-0.554,0.458-1.084,0.951-1.58,1.485C8.495,10.669,6.72,15.163,7.001,20L7,20l0.001,0.007 c0.003,0.052,0.963,7.957,0.963,7.957C9.158,37.582,14.3,45,24,45s14.807-7.244,16-16.862c0,0,0.992-7.981,0.997-7.978 C41.278,15.982,40.019,12.053,37.701,8.916z M31.539,33c-1.967-1.859-4.618-3-7.539-3s-5.572,1.141-7.539,3L11,29v-8.139 c1.366-1.527,2.152-3.532,2.618-5.862h20.764c0.466,2.331,1.252,4.335,2.618,5.862V29L31.539,33z"/><path fill="#ddbaff" d="M22,37h4v2h4c0-2.761-2.686-5-6-5s-6,2.239-6,5h4V37z"/><circle cx="40" cy="25" r="4" fill="#ddbaff"/><path fill="#00b3d7" d="M11,21H7.121l0.843,6.964C8.007,28.315,8.068,28.655,8.122,29H11V21z"/><path fill="#00b3d7" d="M37,21h3.879l-0.843,6.964c-0.044,0.351-0.104,0.692-0.158,1.036H37V21z"/></svg>