<svg xmlns="http://www.w3.org/2000/svg"  viewBox="0 0 48 48" width="48px" height="48px"><path fill="#3ddab4" d="M42.95,27.9c0-2.8-2.05-5-4.95-6.9c-0.6-7.2-6.45-13-14.05-13S10.6,13.8,10,21 c-3,1.8-4.95,4.2-4.95,6.9c0,4,3.8,7.4,9.3,9.2c2.1,3.1,5.5,4.9,9.7,4.9c4,0,7.6-2,9.7-4.9C39.15,35.3,42.95,31.9,42.95,27.9z"/><path fill="#f55376" d="M48.002,15.101c0,0-2.686,2.5-6,2.5c-3.314,0-6-2.5-6-2.5s2.686-2.5,6-2.5 C45.316,12.601,48.002,15.101,48.002,15.101z"/><path fill="#f55376" d="M46.022,8.413c0,0-0.84,3.579-3.593,5.428s-6.377,1.269-6.377,1.269s0.84-3.579,3.593-5.428 S46.022,8.413,46.022,8.413z"/><path fill="#eb0000" d="M43.641,12.8c-0.521-0.122-1.07-0.2-1.639-0.2c-3.023,0-5.517,2.075-5.932,2.44 c-0.011,0.041,3.605,0.65,6.359-1.199C42.885,13.535,43.285,13.178,43.641,12.8z"/><path fill="#f55376" d="M38,21c-1.078,0.69-3.013,1.669-5.6,1.935c-4.043,0.417-7.296-1.287-8.403-1.983 c-1.142,0.685-3.318,1.896-6.531,1.983C13.837,23.033,11.15,21.689,10,21c0-1.652,0-3.352,0-5.005 c1.147-0.69,4.067-1.983,7.034-1.983c3.034,0,5.801,1.286,6.964,1.983c1.085-0.675,3.992-1.983,7.025-1.983 c3,0,5.887,1.307,6.978,1.983C38,17.648,38,19.348,38,21z"/><ellipse cx="24" cy="27" fill="#3ddab4" rx="9" ry="7"/><path fill="#fff" d="M20,18.5c0,0-1.567,1.5-3.5,1.5S13,18.5,13,18.5s1.567-1.5,3.5-1.5S20,18.5,20,18.5z"/><path fill="#fff" d="M35,18.5c0,0-1.567,1.5-3.5,1.5S28,18.5,28,18.5s1.567-1.5,3.5-1.5S35,18.5,35,18.5z"/><circle cx="16.5" cy="18.5" r="1.5" fill="#2100c4"/><circle cx="31.5" cy="18.5" r="1.5" fill="#2100c4"/><path fill="#00b569" d="M24.012,34c-5.71,0-11.29-2.005-11.524-2.09l1.024-2.82c0.053,0.019,5.331,1.91,10.5,1.91 c5.146,0,10.424-1.891,10.477-1.91l1.024,2.82C35.278,31.995,29.699,34,24.012,34z"/></svg>